# xmcd CD database file
#
# Track frame offsets:
#	150
#	38512
#	79951
#	129483
#	186287
#	238038
#	285211
#	301722
#
# Disc length: 4319 seconds
#
# Revision: 1
# Processed by: cddbd v1.5.2PL0 Copyright (c) Steve Scherf et al.
# Submitted via: CDex 1.51
#
DISCID=5c10dd08
DTITLE=Saverio Mercadante - Concertos  (Pierangelo Gelmini, Lario Chamber Orchestra)
DYEAR=2002
DGENRE=Classique
TTITLE0=Concerto  in B flat major Op.101 for clarinet and orchestra - I. Allegru Maestoso
TTITLE1=Concerto  in B flat major Op.101 for clarinet and orchestra - II. Tema con Variazioni
TTITLE2=Concertone N°1  in F major for flute, clarinet, horm and orchestra
TTITLE3=Concertone N°2  in F major for flute, two clarinets, horm and orchestra
TTITLE4=Concertone N°3  in F major for flute, two clarinets, horm and orchestra
TTITLE5=Concerto  in E flat major Op.76 for clarinet and orchestra - I. Maestoso
TTITLE6=Concerto  in E flat major Op.76 for clarinet and orchestra - II. Largo
TTITLE7=Concerto  in E flat major Op.76 for clarinet and orchestra - III. Polacca
EXTD=YEAR: 2002
EXTT0=
EXTT1=
EXTT2=
EXTT3=
EXTT4=
EXTT5=
EXTT6=
EXTT7=
PLAYORDER=
